<?xml version="1.0" encoding="UTF-8" standalone="no"?>
<!-- Created with Inkscape (http://www.inkscape.org/) -->

<svg
   xmlns:dc="http://purl.org/dc/elements/1.1/"
   xmlns:cc="http://creativecommons.org/ns#"
   xmlns:rdf="http://www.w3.org/1999/02/22-rdf-syntax-ns#"
   xmlns:svg="http://www.w3.org/2000/svg"
   xmlns="http://www.w3.org/2000/svg"
   xmlns:sodipodi="http://sodipodi.sourceforge.net/DTD/sodipodi-0.dtd"
   xmlns:inkscape="http://www.inkscape.org/namespaces/inkscape"
   id="svg2"
   version="1.1"
   inkscape:version="0.91 r13725"
   xml:space="preserve"
   width="800"
   height="600"
   viewBox="0 0 800 600"
   sodipodi:docname="logo.svg"><metadata
     id="metadata8"><rdf:RDF><cc:Work
         rdf:about=""><dc:format>image/svg+xml</dc:format><dc:type
           rdf:resource="http://purl.org/dc/dcmitype/StillImage" /><dc:title></dc:title></cc:Work></rdf:RDF></metadata><defs
     id="defs6"><clipPath
       clipPathUnits="userSpaceOnUse"
       id="clipPath16"><path
         d="M 0,480 640,480 640,0 0,0 0,480 Z"
         id="path18"
         inkscape:connector-curvature="0" /></clipPath></defs><sodipodi:namedview
     pagecolor="#ffffff"
     bordercolor="#666666"
     borderopacity="1"
     objecttolerance="10"
     gridtolerance="10"
     guidetolerance="10"
     inkscape:pageopacity="0"
     inkscape:pageshadow="2"
     inkscape:window-width="820"
     inkscape:window-height="480"
     id="namedview4"
     showgrid="false"
     inkscape:zoom="0.39333333"
     inkscape:cx="400"
     inkscape:cy="300"
     inkscape:window-x="0"
     inkscape:window-y="33"
     inkscape:window-maximized="0"
     inkscape:current-layer="g10" /><g
     id="g10"
     inkscape:groupmode="layer"
     inkscape:label="Andre-3"
     transform="matrix(1.25,0,0,-1.25,0,600)"><g
       id="g12"><g
         id="g14"
         clip-path="url(#clipPath16)"><g
           id="g20"
           transform="translate(244.8475,231.1547)"><path
             d="m 0,0 c -5.88,-11.96 -9.18,-25.42 -9.18,-39.65 0,-49.7 40.29,-89.99 90,-89.99 24.02,0 45.84,9.41 61.98,24.75 16.14,-15.34 37.96,-24.75 61.98,-24.75 49.71,0 90,40.29 90,89.99 0,16.32 -4.34,31.62 -11.93,44.82 20.13,16.51 32.97,41.57 32.97,69.63 0,49.7 -40.3,90 -90,90 -1.09,0 -2.17,-0.02 -3.24,-0.07 -16.17,23.94 -43.56,39.68 -74.63,39.68 -31.79,0 -59.73,-16.49 -75.74,-41.38 -13.77,8.56 -30.02,13.5 -47.42,13.5 -49.7,0 -89.99,-40.29 -89.99,-89.99 C -65.2,45.43 -37.64,10.76 0,0"
             style="fill:#ffffff;fill-opacity:1;fill-rule:nonzero;stroke:none"
             id="path22"
             inkscape:connector-curvature="0" /></g><g
           id="g24"
           transform="translate(244.8475,231.1547)"><path
             d="m 0,0 c -5.88,-11.96 -9.18,-25.42 -9.18,-39.65 0,-49.7 40.29,-89.99 90,-89.99 24.02,0 45.84,9.41 61.98,24.75 16.14,-15.34 37.96,-24.75 61.98,-24.75 49.71,0 90,40.29 90,89.99 0,16.32 -4.34,31.62 -11.93,44.82 20.13,16.51 32.97,41.57 32.97,69.63 0,49.7 -40.3,90 -90,90 -1.09,0 -2.17,-0.02 -3.24,-0.07 -16.17,23.94 -43.56,39.68 -74.63,39.68 -31.79,0 -59.73,-16.49 -75.74,-41.38 -13.77,8.56 -30.02,13.5 -47.42,13.5 -49.7,0 -89.99,-40.29 -89.99,-89.99 C -65.2,45.43 -37.64,10.76 0,0 Z"
             style="fill:none;stroke:#000000;stroke-width:10;stroke-linecap:butt;stroke-linejoin:miter;stroke-miterlimit:10;stroke-dasharray:none;stroke-opacity:1"
             id="path26"
             inkscape:connector-curvature="0" /></g><g
           id="g28"
           transform="translate(90.9368,163.8352)"><path
             d="m 0,0 c 0,-28.759 23.314,-52.073 52.073,-52.073 28.759,0 52.073,23.314 52.073,52.073 0,28.759 -23.314,52.073 -52.073,52.073 C 23.314,52.073 0,28.759 0,0"
             style="fill:#ffffff;fill-opacity:1;fill-rule:nonzero;stroke:none"
             id="path30"
             inkscape:connector-curvature="0" /></g><g
           id="g32"
           transform="translate(90.9368,163.8352)"><path
             d="m 0,0 c 0,-28.759 23.314,-52.073 52.073,-52.073 28.759,0 52.073,23.314 52.073,52.073 0,28.759 -23.314,52.073 -52.073,52.073 C 23.314,52.073 0,28.759 0,0 Z"
             style="fill:none;stroke:#000000;stroke-width:10;stroke-linecap:butt;stroke-linejoin:miter;stroke-miterlimit:10;stroke-dasharray:none;stroke-opacity:1"
             id="path34"
             inkscape:connector-curvature="0" /></g><g
           id="g36"
           transform="translate(28.1087,81.7635)"><path
             d="m 0,0 c 0,-16.568 13.431,-29.999 29.999,-29.999 16.567,0 29.998,13.431 29.998,29.999 0,16.568 -13.431,29.999 -29.998,29.999 C 13.431,29.999 0,16.568 0,0"
             style="fill:#ffffff;fill-opacity:1;fill-rule:nonzero;stroke:none"
             id="path38"
             inkscape:connector-curvature="0" /></g><g
           id="g40"
           transform="translate(28.1087,81.7635)"><path
             d="m 0,0 c 0,-16.568 13.431,-29.999 29.999,-29.999 16.567,0 29.998,13.431 29.998,29.999 0,16.568 -13.431,29.999 -29.998,29.999 C 13.431,29.999 0,16.568 0,0 Z"
             style="fill:none;stroke:#000000;stroke-width:10;stroke-linecap:butt;stroke-linejoin:miter;stroke-miterlimit:10;stroke-dasharray:none;stroke-opacity:1"
             id="path42"
             inkscape:connector-curvature="0" /></g><g
           id="g44"
           transform="translate(390.3437,245.9137)"><path
             d="M 0,0 C 0.918,0.504 2.695,-0.624 3.112,1.321 3.324,2.309 2.419,2.578 1.716,2.257 0.293,1.606 -2.05,2.513 -2.517,0.649 -2.795,-0.461 -1.02,0.225 0,0 m -8.152,-4.215 c 0.058,-0.261 0.116,-0.522 0.174,-0.783 2.061,0 4.121,0.014 6.181,-0.004 1.817,-0.015 3.61,-0.086 5.379,0.589 1.033,0.393 1.286,1.164 1.198,1.963 -0.079,0.723 -0.959,0.603 -1.472,0.506 -3.826,-0.722 -7.641,-1.506 -11.46,-2.271 m -23.837,-2.522 c -5.275,2.106 -9.979,0.344 -15.146,-0.737 5.266,-1.413 10,-0.732 15.146,0.737 m 18.682,-3.858 c 5.001,-0.482 9.163,-1.862 13.289,0.202 0.92,0.46 2.607,0.338 2.394,1.708 -0.264,1.697 -2.043,0.92 -3.015,0.865 -4.079,-0.234 -7.917,-1.676 -12.668,-2.775 m -53.399,-0.903 c 6.521,-1.437 8.528,-1.259 17.311,1.269 -6.049,2.024 -11.656,0.075 -17.311,-1.269 m -1.568,-2.639 c -8.445,1.128 -12.6,0.803 -16.504,-1.159 5.812,-2.37 11.121,-0.188 16.504,1.159 m 64.804,-8.828 c -4.25,-1.889 -7.915,-3.518 -12.385,-5.505 10.219,-1.948 10.219,-1.948 12.385,5.505 m -26.685,13.956 c 6.687,-1.802 13.369,-0.819 19.938,1.555 -6.873,1.374 -13.558,0.441 -19.938,-1.555 m -0.5,-3.157 c -7.614,2.083 -14.265,0.57 -20.871,-1.256 6.881,-2.351 13.587,-1.36 20.871,1.256 m 15.799,-6.347 c 3.537,-0.391 7.067,-0.854 10.611,-1.148 2.452,-0.203 3.65,1.543 3.682,3.561 0.033,2.087 -2.139,1.454 -3.294,1.471 -3.938,0.058 -7.276,-2.191 -10.999,-3.884 m -57.196,0.719 c 11.531,-2.261 12.046,-2.235 21.371,0.947 -7.08,2.56 -14.001,1.332 -21.371,-0.947 m 59.86,3.768 c -7.252,2.042 -14.363,0.895 -21.552,-1.677 7.607,-2.255 14.801,-2.077 21.552,1.677 m -42.488,-6.822 c 9.167,-3.421 15.659,-3.152 24.584,0.986 -8.275,2.455 -16.562,2.587 -24.584,-0.986 m 20.131,-4.033 c 13.293,-2.781 15.386,-2.566 23.174,2.221 -7.839,2.592 -15.496,2.26 -23.174,-2.221 M 9.739,-46.508 c 0.567,0.084 1.049,0.105 1.503,0.231 31.329,8.67 62.655,17.353 93.986,26.022 5.414,1.498 5.222,1.484 5.625,7.121 0.239,3.346 -0.882,3.444 -3.6,2.668 -9.295,-2.656 -18.649,-5.107 -27.979,-7.642 -22.281,-6.053 -44.561,-12.111 -66.842,-18.162 -1.242,-0.337 -2.753,-0.235 -2.708,-2.214 0.061,-2.638 0.015,-5.278 0.015,-8.024 M 143.532,92.442 C 137.61,92.018 131.682,91.666 125.768,91.159 101.117,89.044 76.474,86.838 51.816,84.811 49.562,84.625 48.825,83.853 48.167,81.817 41.525,61.253 34.856,40.696 27.908,20.234 26.731,16.767 26.978,12.434 23.202,10.054 23.055,9.961 23.557,8.84 23.757,8.199 22.133,5.251 21.586,2.02 21.269,-1.271 17.661,-11.932 14.053,-22.592 10.29,-33.711 c 1.424,0.259 2.247,0.35 3.039,0.561 31.664,8.413 63.318,16.864 95.002,25.2 2.085,0.549 2.891,1.613 3.513,3.486 4.192,12.612 8.505,25.185 12.742,37.783 6.545,19.46 13.061,38.931 19.588,58.398 0.061,0.25 0.123,0.501 0.184,0.751 -0.275,-0.009 -0.551,-0.018 -0.826,-0.026 M 22.489,13.929 c 0.173,0.8 0.347,1.601 0.52,2.401 0.348,0.633 0.808,1.229 1.028,1.904 5.939,18.253 11.872,36.508 17.754,54.779 1.087,3.377 2.608,6.648 3.057,10.374 C 42.699,82.87 41.882,81.411 41.244,79.805 32.904,58.829 24.57,37.85 16.234,16.872 15.236,14.896 14.414,12.855 14.006,10.667 13.604,10.237 12.998,9.875 12.828,9.367 8.062,-4.847 1.768,-18.466 -3.446,-32.504 c -0.69,-1.859 -1.399,-2.636 -3.622,-2.164 -28.061,5.955 -56.146,11.8 -84.226,17.663 -0.825,0.172 -1.672,0.251 -2.513,0.322 -2.669,0.224 -3.109,-1.69 -3.579,-3.67 -0.586,-2.466 1.4,-2.098 2.628,-2.391 14.592,-3.482 29.192,-6.93 43.796,-10.363 18.931,-4.449 37.867,-8.876 57.143,-13.393 -0.591,6.374 0.348,12.206 2.481,18.018 3.161,8.615 5.728,17.448 8.547,26.188 0.326,1.132 0.652,2.264 0.977,3.396 1.001,1.711 2.719,3.213 1.613,5.537 0.359,0.924 0.718,1.848 1.078,2.772 2.516,0.8 0.684,3.151 1.612,4.518 M -12.162,-2.113 c -4.649,0.67 -9.193,0.569 -14.046,-1.802 5.205,-0.906 9.598,0.154 13.98,1.324 0.841,0.251 1.941,-0.473 2.667,0.81 -0.544,0.087 -0.986,0.191 -1.432,0.219 -0.472,0.029 -0.968,0.029 -1.169,-0.551 m -8.053,3.603 c 1.966,0.165 3.989,-0.05 5.843,0.866 1.228,0.238 2.455,0.476 3.682,0.714 4.49,0.818 8.98,1.636 13.47,2.455 1.12,0.227 2.24,0.455 3.36,0.683 4.544,0.725 3.876,4.778 4.936,7.729 0.27,0.688 1.371,1.025 0.866,2.042 3.775,7.422 6.369,15.329 9.413,23.049 5.184,13.145 10.326,26.309 15.282,39.541 2.763,7.375 8.199,10.107 15.647,10.629 20.702,1.452 41.386,3.151 62.076,4.771 9.677,0.757 19.347,1.618 29.028,2.313 4.697,0.337 5.959,-1.414 4.537,-6.245 -5.392,-18.319 -11.91,-36.263 -18.242,-54.267 -4.61,-13.108 -9.232,-26.213 -14.11,-39.222 -1.861,-4.965 -1.703,-9.984 -1.607,-15.052 0.033,-1.722 -0.407,-2.638 -2.097,-3.121 -33.357,-9.531 -66.487,-19.845 -99.985,-28.891 -2.146,-0.58 -4.302,-0.827 -6.456,-0.129 -21.428,6.95 -43.551,11.147 -65.39,16.463 -12.69,3.09 -25.445,5.908 -38.18,8.808 -1.654,0.376 -2.441,0.85 -2.06,2.895 1.434,7.705 1.361,7.648 9.238,9.523 19.082,4.544 38.451,7.655 57.647,11.629 2.024,0.455 4.266,-0.225 6.109,1.175 0.872,0.119 1.744,0.239 2.616,0.358 1.459,0.428 2.918,0.856 4.377,1.284"
             style="fill:#131313;fill-opacity:1;fill-rule:nonzero;stroke:none"
             id="path46"
             inkscape:connector-curvature="0" /></g><g
           id="g48"
           transform="translate(390.3437,245.9137)"><path
             d="M 0,0 C 0.918,0.504 2.695,-0.624 3.112,1.321 3.324,2.309 2.419,2.578 1.716,2.257 0.293,1.606 -2.05,2.513 -2.517,0.649 -2.795,-0.461 -1.02,0.225 0,0 Z m -8.152,-4.215 c 0.058,-0.261 0.116,-0.522 0.174,-0.783 2.061,0 4.121,0.014 6.181,-0.004 1.817,-0.015 3.61,-0.086 5.379,0.589 1.033,0.393 1.286,1.164 1.198,1.963 -0.079,0.723 -0.959,0.603 -1.472,0.506 -3.826,-0.722 -7.641,-1.506 -11.46,-2.271 z m -23.837,-2.522 c -5.275,2.106 -9.979,0.344 -15.146,-0.737 5.266,-1.413 10,-0.732 15.146,0.737 z m 18.682,-3.858 c 5.001,-0.482 9.163,-1.862 13.289,0.202 0.92,0.46 2.607,0.338 2.394,1.708 -0.264,1.697 -2.043,0.92 -3.015,0.865 -4.079,-0.234 -7.917,-1.676 -12.668,-2.775 z m -53.399,-0.903 c 6.521,-1.437 8.528,-1.259 17.311,1.269 -6.049,2.024 -11.656,0.075 -17.311,-1.269 z m -1.568,-2.639 c -8.445,1.128 -12.6,0.803 -16.504,-1.159 5.812,-2.37 11.121,-0.188 16.504,1.159 z m 64.804,-8.828 c -4.25,-1.889 -7.915,-3.518 -12.385,-5.505 10.219,-1.948 10.219,-1.948 12.385,5.505 z m -26.685,13.956 c 6.687,-1.802 13.369,-0.819 19.938,1.555 -6.873,1.374 -13.558,0.441 -19.938,-1.555 z m -0.5,-3.157 c -7.614,2.083 -14.265,0.57 -20.871,-1.256 6.881,-2.351 13.587,-1.36 20.871,1.256 z m 15.799,-6.347 c 3.537,-0.391 7.067,-0.854 10.611,-1.148 2.452,-0.203 3.65,1.543 3.682,3.561 0.033,2.087 -2.139,1.454 -3.294,1.471 -3.938,0.058 -7.276,-2.191 -10.999,-3.884 z m -57.196,0.719 c 11.531,-2.261 12.046,-2.235 21.371,0.947 -7.08,2.56 -14.001,1.332 -21.371,-0.947 z m 59.86,3.768 c -7.252,2.042 -14.363,0.895 -21.552,-1.677 7.607,-2.255 14.801,-2.077 21.552,1.677 z m -42.488,-6.822 c 9.167,-3.421 15.659,-3.152 24.584,0.986 -8.275,2.455 -16.562,2.587 -24.584,-0.986 z m 20.131,-4.033 c 13.293,-2.781 15.386,-2.566 23.174,2.221 -7.839,2.592 -15.496,2.26 -23.174,-2.221 z M 9.739,-46.508 c 0.567,0.084 1.049,0.105 1.503,0.231 31.329,8.67 62.655,17.353 93.986,26.022 5.414,1.498 5.222,1.484 5.625,7.121 0.239,3.346 -0.882,3.444 -3.6,2.668 -9.295,-2.656 -18.649,-5.107 -27.979,-7.642 -22.281,-6.053 -44.561,-12.111 -66.842,-18.162 -1.242,-0.337 -2.753,-0.235 -2.708,-2.214 0.061,-2.638 0.015,-5.278 0.015,-8.024 z M 143.532,92.442 C 137.61,92.018 131.682,91.666 125.768,91.159 101.117,89.044 76.474,86.838 51.816,84.811 49.562,84.625 48.825,83.853 48.167,81.817 41.525,61.253 34.856,40.696 27.908,20.234 26.731,16.767 26.978,12.434 23.202,10.054 23.055,9.961 23.557,8.84 23.757,8.199 22.133,5.251 21.586,2.02 21.269,-1.271 17.661,-11.932 14.053,-22.592 10.29,-33.711 c 1.424,0.259 2.247,0.35 3.039,0.561 31.664,8.413 63.318,16.864 95.002,25.2 2.085,0.549 2.891,1.613 3.513,3.486 4.192,12.612 8.505,25.185 12.742,37.783 6.545,19.46 13.061,38.931 19.588,58.398 0.061,0.25 0.123,0.501 0.184,0.751 -0.275,-0.009 -0.551,-0.018 -0.826,-0.026 z M 22.489,13.929 c 0.173,0.8 0.347,1.601 0.52,2.401 0.348,0.633 0.808,1.229 1.028,1.904 5.939,18.253 11.872,36.508 17.754,54.779 1.087,3.377 2.608,6.648 3.057,10.374 C 42.699,82.87 41.882,81.411 41.244,79.805 32.904,58.829 24.57,37.85 16.234,16.872 15.236,14.896 14.414,12.855 14.006,10.667 13.604,10.237 12.998,9.875 12.828,9.367 8.062,-4.847 1.768,-18.466 -3.446,-32.504 c -0.69,-1.859 -1.399,-2.636 -3.622,-2.164 -28.061,5.955 -56.146,11.8 -84.226,17.663 -0.825,0.172 -1.672,0.251 -2.513,0.322 -2.669,0.224 -3.109,-1.69 -3.579,-3.67 -0.586,-2.466 1.4,-2.098 2.628,-2.391 14.592,-3.482 29.192,-6.93 43.796,-10.363 18.931,-4.449 37.867,-8.876 57.143,-13.393 -0.591,6.374 0.348,12.206 2.481,18.018 3.161,8.615 5.728,17.448 8.547,26.188 0.326,1.132 0.652,2.264 0.977,3.396 1.001,1.711 2.719,3.213 1.613,5.537 0.359,0.924 0.718,1.848 1.078,2.772 2.516,0.8 0.684,3.151 1.612,4.518 z M -12.162,-2.113 c -4.649,0.67 -9.193,0.569 -14.046,-1.802 5.205,-0.906 9.598,0.154 13.98,1.324 0.841,0.251 1.941,-0.473 2.667,0.81 -0.544,0.087 -0.986,0.191 -1.432,0.219 -0.472,0.029 -0.968,0.029 -1.169,-0.551 z m -8.053,3.603 c 1.966,0.165 3.989,-0.05 5.843,0.866 1.228,0.238 2.455,0.476 3.682,0.714 4.49,0.818 8.98,1.636 13.47,2.455 1.12,0.227 2.24,0.455 3.36,0.683 4.544,0.725 3.876,4.778 4.936,7.729 0.27,0.688 1.371,1.025 0.866,2.042 3.775,7.422 6.369,15.329 9.413,23.049 5.184,13.145 10.326,26.309 15.282,39.541 2.763,7.375 8.199,10.107 15.647,10.629 20.702,1.452 41.386,3.151 62.076,4.771 9.677,0.757 19.347,1.618 29.028,2.313 4.697,0.337 5.959,-1.414 4.537,-6.245 -5.392,-18.319 -11.91,-36.263 -18.242,-54.267 -4.61,-13.108 -9.232,-26.213 -14.11,-39.222 -1.861,-4.965 -1.703,-9.984 -1.607,-15.052 0.033,-1.722 -0.407,-2.638 -2.097,-3.121 -33.357,-9.531 -66.487,-19.845 -99.985,-28.891 -2.146,-0.58 -4.302,-0.827 -6.456,-0.129 -21.428,6.95 -43.551,11.147 -65.39,16.463 -12.69,3.09 -25.445,5.908 -38.18,8.808 -1.654,0.376 -2.441,0.85 -2.06,2.895 1.434,7.705 1.361,7.648 9.238,9.523 19.082,4.544 38.451,7.655 57.647,11.629 2.024,0.455 4.266,-0.225 6.109,1.175 0.872,0.119 1.744,0.239 2.616,0.358 1.459,0.428 2.918,0.856 4.377,1.284 z"
             style="fill:none;stroke:#000000;stroke-width:2;stroke-linecap:butt;stroke-linejoin:miter;stroke-miterlimit:10;stroke-dasharray:none;stroke-opacity:1"
             id="path50"
             inkscape:connector-curvature="0" /></g><g
           id="g52"
           transform="translate(407.5532,243.6199)"><path
             d="m 0,0 c -2.82,-8.74 -5.386,-17.574 -8.548,-26.189 -2.132,-5.811 -3.072,-11.643 -2.481,-18.017 -19.276,4.517 -38.212,8.944 -57.143,13.393 -14.603,3.432 -29.203,6.881 -43.796,10.363 -1.228,0.293 -3.214,-0.075 -2.628,2.391 0.471,1.979 0.911,3.894 3.58,3.67 0.841,-0.071 1.688,-0.15 2.512,-0.322 28.081,-5.863 56.165,-11.709 84.226,-17.663 2.224,-0.472 2.932,0.305 3.623,2.164 5.214,14.038 11.507,27.656 16.273,41.871 0.17,0.508 0.776,0.87 1.179,1.299 C -2.739,9.508 0.029,9.37 2.59,8.933 3.695,6.609 1.977,5.107 0.977,3.396 -0.593,3.74 -2.553,6.005 -3.634,3.521 -4.676,1.127 -1.675,1.449 -0.496,0.527 -0.308,0.38 -0.164,0.177 0,0"
             style="fill:#ffffff;fill-opacity:1;fill-rule:nonzero;stroke:none"
             id="path54"
             inkscape:connector-curvature="0" /></g><g
           id="g56"
           transform="translate(407.5532,243.6199)"><path
             d="m 0,0 c -2.82,-8.74 -5.386,-17.574 -8.548,-26.189 -2.132,-5.811 -3.072,-11.643 -2.481,-18.017 -19.276,4.517 -38.212,8.944 -57.143,13.393 -14.603,3.432 -29.203,6.881 -43.796,10.363 -1.228,0.293 -3.214,-0.075 -2.628,2.391 0.471,1.979 0.911,3.894 3.58,3.67 0.841,-0.071 1.688,-0.15 2.512,-0.322 28.081,-5.863 56.165,-11.709 84.226,-17.663 2.224,-0.472 2.932,0.305 3.623,2.164 5.214,14.038 11.507,27.656 16.273,41.871 0.17,0.508 0.776,0.87 1.179,1.299 C -2.739,9.508 0.029,9.37 2.59,8.933 3.695,6.609 1.977,5.107 0.977,3.396 -0.593,3.74 -2.553,6.005 -3.634,3.521 -4.676,1.127 -1.675,1.449 -0.496,0.527 -0.308,0.38 -0.164,0.177 0,0 Z"
             style="fill:none;stroke:#000000;stroke-width:2;stroke-linecap:butt;stroke-linejoin:miter;stroke-miterlimit:10;stroke-dasharray:none;stroke-opacity:1"
             id="path58"
             inkscape:connector-curvature="0" /></g><g
           id="g60"
           transform="translate(400.0828,199.406)"><path
             d="m 0,0 c 0,2.746 0.045,5.386 -0.015,8.024 -0.045,1.979 1.466,1.877 2.707,2.214 22.282,6.051 44.562,12.109 66.843,18.162 9.33,2.535 18.684,4.986 27.979,7.641 2.718,0.777 3.839,0.679 3.6,-2.667 -0.403,-5.637 -0.211,-5.623 -5.626,-7.121 C 64.158,17.584 32.832,8.901 1.503,0.23 1.049,0.105 0.567,0.084 0,0"
             style="fill:#ffffff;fill-opacity:1;fill-rule:nonzero;stroke:none"
             id="path62"
             inkscape:connector-curvature="0" /></g><g
           id="g64"
           transform="translate(400.0828,199.406)"><path
             d="m 0,0 c 0,2.746 0.045,5.386 -0.015,8.024 -0.045,1.979 1.466,1.877 2.707,2.214 22.282,6.051 44.562,12.109 66.843,18.162 9.33,2.535 18.684,4.986 27.979,7.641 2.718,0.777 3.839,0.679 3.6,-2.667 -0.403,-5.637 -0.211,-5.623 -5.626,-7.121 C 64.158,17.584 32.832,8.901 1.503,0.23 1.049,0.105 0.567,0.084 0,0 Z"
             style="fill:none;stroke:#000000;stroke-width:2;stroke-linecap:butt;stroke-linejoin:miter;stroke-miterlimit:10;stroke-dasharray:none;stroke-opacity:1"
             id="path66"
             inkscape:connector-curvature="0" /></g><g
           id="g68"
           transform="translate(406.5778,262.7859)"><path
             d="m 0,0 c 8.336,20.978 16.67,41.957 25.01,62.933 0.638,1.606 1.455,3.065 3.604,3.581 C 28.165,62.788 26.644,59.518 25.557,56.141 19.675,37.87 13.742,19.615 7.803,1.362 7.583,0.687 7.123,0.091 6.775,-0.542 4.74,2.435 2.219,-0.679 0,0"
             style="fill:#ffffff;fill-opacity:1;fill-rule:nonzero;stroke:none"
             id="path70"
             inkscape:connector-curvature="0" /></g><g
           id="g72"
           transform="translate(406.5778,262.7859)"><path
             d="m 0,0 c 8.336,20.978 16.67,41.957 25.01,62.933 0.638,1.606 1.455,3.065 3.604,3.581 C 28.165,62.788 26.644,59.518 25.557,56.141 19.675,37.87 13.742,19.615 7.803,1.362 7.583,0.687 7.123,0.091 6.775,-0.542 4.74,2.435 2.219,-0.679 0,0 Z"
             style="fill:none;stroke:#000000;stroke-width:2;stroke-linecap:butt;stroke-linejoin:miter;stroke-miterlimit:10;stroke-dasharray:none;stroke-opacity:1"
             id="path74"
             inkscape:connector-curvature="0" /></g><g
           id="g76"
           transform="translate(355.7944,221.0327)"><path
             d="M 0,0 C 7.678,4.481 15.336,4.813 23.174,2.221 15.386,-2.566 13.293,-2.781 0,0"
             style="fill:#ffffff;fill-opacity:1;fill-rule:nonzero;stroke:none"
             id="path78"
             inkscape:connector-curvature="0" /></g><g
           id="g80"
           transform="translate(355.7944,221.0327)"><path
             d="M 0,0 C 7.678,4.481 15.336,4.813 23.174,2.221 15.386,-2.566 13.293,-2.781 0,0 Z"
             style="fill:none;stroke:#000000;stroke-width:2;stroke-linecap:butt;stroke-linejoin:miter;stroke-miterlimit:10;stroke-dasharray:none;stroke-opacity:1"
             id="path82"
             inkscape:connector-curvature="0" /></g><g
           id="g84"
           transform="translate(335.6638,225.0662)"><path
             d="M 0,0 C 8.022,3.573 16.309,3.44 24.584,0.985 15.659,-3.152 9.167,-3.421 0,0"
             style="fill:#ffffff;fill-opacity:1;fill-rule:nonzero;stroke:none"
             id="path86"
             inkscape:connector-curvature="0" /></g><g
           id="g88"
           transform="translate(335.6638,225.0662)"><path
             d="M 0,0 C 8.022,3.573 16.309,3.44 24.584,0.985 15.659,-3.152 9.167,-3.421 0,0 Z"
             style="fill:none;stroke:#000000;stroke-width:2;stroke-linecap:butt;stroke-linejoin:miter;stroke-miterlimit:10;stroke-dasharray:none;stroke-opacity:1"
             id="path90"
             inkscape:connector-curvature="0" /></g><g
           id="g92"
           transform="translate(378.1518,231.8876)"><path
             d="M 0,0 C -6.751,-3.754 -13.945,-3.932 -21.552,-1.677 -14.363,0.895 -7.252,2.042 0,0"
             style="fill:#ffffff;fill-opacity:1;fill-rule:nonzero;stroke:none"
             id="path94"
             inkscape:connector-curvature="0" /></g><g
           id="g96"
           transform="translate(378.1518,231.8876)"><path
             d="M 0,0 C -6.751,-3.754 -13.945,-3.932 -21.552,-1.677 -14.363,0.895 -7.252,2.042 0,0 Z"
             style="fill:none;stroke:#000000;stroke-width:2;stroke-linecap:butt;stroke-linejoin:miter;stroke-miterlimit:10;stroke-dasharray:none;stroke-opacity:1"
             id="path98"
             inkscape:connector-curvature="0" /></g><g
           id="g100"
           transform="translate(318.2917,228.1201)"><path
             d="M 0,0 C 7.37,2.279 14.292,3.506 21.371,0.948 12.046,-2.235 11.531,-2.262 0,0"
             style="fill:#ffffff;fill-opacity:1;fill-rule:nonzero;stroke:none"
             id="path102"
             inkscape:connector-curvature="0" /></g><g
           id="g104"
           transform="translate(318.2917,228.1201)"><path
             d="M 0,0 C 7.37,2.279 14.292,3.506 21.371,0.948 12.046,-2.235 11.531,-2.262 0,0 Z"
             style="fill:none;stroke:#000000;stroke-width:2;stroke-linecap:butt;stroke-linejoin:miter;stroke-miterlimit:10;stroke-dasharray:none;stroke-opacity:1"
             id="path106"
             inkscape:connector-curvature="0" /></g><g
           id="g108"
           transform="translate(375.4882,227.4003)"><path
             d="M 0,0 C 3.723,1.694 7.061,3.942 10.999,3.884 12.153,3.867 14.325,4.501 14.292,2.413 14.261,0.396 13.063,-1.351 10.61,-1.147 7.066,-0.854 3.536,-0.391 0,0"
             style="fill:#ffffff;fill-opacity:1;fill-rule:nonzero;stroke:none"
             id="path110"
             inkscape:connector-curvature="0" /></g><g
           id="g112"
           transform="translate(375.4882,227.4003)"><path
             d="M 0,0 C 3.723,1.694 7.061,3.942 10.999,3.884 12.153,3.867 14.325,4.501 14.292,2.413 14.261,0.396 13.063,-1.351 10.61,-1.147 7.066,-0.854 3.536,-0.391 0,0 Z"
             style="fill:none;stroke:#000000;stroke-width:2;stroke-linecap:butt;stroke-linejoin:miter;stroke-miterlimit:10;stroke-dasharray:none;stroke-opacity:1"
             id="path114"
             inkscape:connector-curvature="0" /></g><g
           id="g116"
           transform="translate(359.6888,233.7473)"><path
             d="M 0,0 C -7.284,-2.616 -13.99,-3.606 -20.871,-1.256 -14.265,0.571 -7.614,2.083 0,0"
             style="fill:#ffffff;fill-opacity:1;fill-rule:nonzero;stroke:none"
             id="path118"
             inkscape:connector-curvature="0" /></g><g
           id="g120"
           transform="translate(359.6888,233.7473)"><path
             d="M 0,0 C -7.284,-2.616 -13.99,-3.606 -20.871,-1.256 -14.265,0.571 -7.614,2.083 0,0 Z"
             style="fill:none;stroke:#000000;stroke-width:2;stroke-linecap:butt;stroke-linejoin:miter;stroke-miterlimit:10;stroke-dasharray:none;stroke-opacity:1"
             id="path122"
             inkscape:connector-curvature="0" /></g><g
           id="g124"
           transform="translate(360.1885,236.9045)"><path
             d="M 0,0 C 6.38,1.996 13.066,2.929 19.938,1.552 13.369,-0.819 6.687,-1.802 0,0"
             style="fill:#ffffff;fill-opacity:1;fill-rule:nonzero;stroke:none"
             id="path126"
             inkscape:connector-curvature="0" /></g><g
           id="g128"
           transform="translate(360.1885,236.9045)"><path
             d="M 0,0 C 6.38,1.996 13.066,2.929 19.938,1.552 13.369,-0.819 6.687,-1.802 0,0 Z"
             style="fill:none;stroke:#000000;stroke-width:2;stroke-linecap:butt;stroke-linejoin:miter;stroke-miterlimit:10;stroke-dasharray:none;stroke-opacity:1"
             id="path130"
             inkscape:connector-curvature="0" /></g><g
           id="g132"
           transform="translate(386.8736,222.9492)"><path
             d="M 0,0 C -2.166,-7.453 -2.166,-7.453 -12.385,-5.505 -7.915,-3.518 -4.25,-1.889 0,0"
             style="fill:#ffffff;fill-opacity:1;fill-rule:nonzero;stroke:none"
             id="path134"
             inkscape:connector-curvature="0" /></g><g
           id="g136"
           transform="translate(386.8736,222.9492)"><path
             d="M 0,0 C -2.166,-7.453 -2.166,-7.453 -12.385,-5.505 -7.915,-3.518 -4.25,-1.889 0,0 Z"
             style="fill:none;stroke:#000000;stroke-width:2;stroke-linecap:butt;stroke-linejoin:miter;stroke-miterlimit:10;stroke-dasharray:none;stroke-opacity:1"
             id="path138"
             inkscape:connector-curvature="0" /></g><g
           id="g140"
           transform="translate(322.0694,231.7771)"><path
             d="M 0,0 C -5.383,-1.347 -10.692,-3.529 -16.504,-1.159 -12.6,0.803 -8.444,1.128 0,0"
             style="fill:#ffffff;fill-opacity:1;fill-rule:nonzero;stroke:none"
             id="path142"
             inkscape:connector-curvature="0" /></g><g
           id="g144"
           transform="translate(322.0694,231.7771)"><path
             d="M 0,0 C -5.383,-1.347 -10.692,-3.529 -16.504,-1.159 -12.6,0.803 -8.444,1.128 0,0 Z"
             style="fill:none;stroke:#000000;stroke-width:2;stroke-linecap:butt;stroke-linejoin:miter;stroke-miterlimit:10;stroke-dasharray:none;stroke-opacity:1"
             id="path146"
             inkscape:connector-curvature="0" /></g><g
           id="g148"
           transform="translate(323.6375,234.4157)"><path
             d="M 0,0 C 5.655,1.344 11.262,3.293 17.311,1.269 8.528,-1.259 6.521,-1.437 0,0"
             style="fill:#ffffff;fill-opacity:1;fill-rule:nonzero;stroke:none"
             id="path150"
             inkscape:connector-curvature="0" /></g><g
           id="g152"
           transform="translate(323.6375,234.4157)"><path
             d="M 0,0 C 5.655,1.344 11.262,3.293 17.311,1.269 8.528,-1.259 6.521,-1.437 0,0 Z"
             style="fill:none;stroke:#000000;stroke-width:2;stroke-linecap:butt;stroke-linejoin:miter;stroke-miterlimit:10;stroke-dasharray:none;stroke-opacity:1"
             id="path154"
             inkscape:connector-curvature="0" /></g><g
           id="g156"
           transform="translate(377.0367,235.3183)"><path
             d="M 0,0 C 4.751,1.099 8.589,2.541 12.668,2.775 13.64,2.831 15.419,3.607 15.683,1.91 15.896,0.541 14.209,0.663 13.289,0.202 9.163,-1.862 5.001,-0.482 0,0"
             style="fill:#ffffff;fill-opacity:1;fill-rule:nonzero;stroke:none"
             id="path158"
             inkscape:connector-curvature="0" /></g><g
           id="g160"
           transform="translate(377.0367,235.3183)"><path
             d="M 0,0 C 4.751,1.099 8.589,2.541 12.668,2.775 13.64,2.831 15.419,3.607 15.683,1.91 15.896,0.541 14.209,0.663 13.289,0.202 9.163,-1.862 5.001,-0.482 0,0 Z"
             style="fill:none;stroke:#000000;stroke-width:2;stroke-linecap:butt;stroke-linejoin:miter;stroke-miterlimit:10;stroke-dasharray:none;stroke-opacity:1"
             id="path162"
             inkscape:connector-curvature="0" /></g><g
           id="g164"
           transform="translate(358.3551,239.1768)"><path
             d="M 0,0 C -5.146,-1.469 -9.881,-2.15 -15.146,-0.737 -9.98,0.344 -5.275,2.106 0,0"
             style="fill:#ffffff;fill-opacity:1;fill-rule:nonzero;stroke:none"
             id="path166"
             inkscape:connector-curvature="0" /></g><g
           id="g168"
           transform="translate(358.3551,239.1768)"><path
             d="M 0,0 C -5.146,-1.469 -9.881,-2.15 -15.146,-0.737 -9.98,0.344 -5.275,2.106 0,0 Z"
             style="fill:none;stroke:#000000;stroke-width:2;stroke-linecap:butt;stroke-linejoin:miter;stroke-miterlimit:10;stroke-dasharray:none;stroke-opacity:1"
             id="path170"
             inkscape:connector-curvature="0" /></g><g
           id="g172"
           transform="translate(382.1919,241.6985)"><path
             d="M 0,0 C 3.819,0.765 7.633,1.549 11.46,2.272 11.973,2.368 12.853,2.488 12.932,1.765 13.02,0.966 12.767,0.196 11.734,-0.198 9.965,-0.872 8.172,-0.802 6.355,-0.787 4.295,-0.769 2.234,-0.783 0.174,-0.783 0.116,-0.522 0.058,-0.261 0,0"
             style="fill:#ffffff;fill-opacity:1;fill-rule:nonzero;stroke:none"
             id="path174"
             inkscape:connector-curvature="0" /></g><g
           id="g176"
           transform="translate(382.1919,241.6985)"><path
             d="M 0,0 C 3.819,0.765 7.633,1.549 11.46,2.272 11.973,2.368 12.853,2.488 12.932,1.765 13.02,0.966 12.767,0.196 11.734,-0.198 9.965,-0.872 8.172,-0.802 6.355,-0.787 4.295,-0.769 2.234,-0.783 0.174,-0.783 0.116,-0.522 0.058,-0.261 0,0 Z"
             style="fill:none;stroke:#000000;stroke-width:2;stroke-linecap:butt;stroke-linejoin:miter;stroke-miterlimit:10;stroke-dasharray:none;stroke-opacity:1"
             id="path178"
             inkscape:connector-curvature="0" /></g><g
           id="g180"
           transform="translate(378.1154,243.3227)"><path
             d="M 0,0 C -4.382,-1.17 -8.774,-2.23 -13.98,-1.324 -9.127,1.047 -4.582,1.148 0.066,0.478 -0.094,0.338 -0.116,0.178 0,0"
             style="fill:#ffffff;fill-opacity:1;fill-rule:nonzero;stroke:none"
             id="path182"
             inkscape:connector-curvature="0" /></g><g
           id="g184"
           transform="translate(378.1154,243.3227)"><path
             d="M 0,0 C -4.382,-1.17 -8.774,-2.23 -13.98,-1.324 -9.127,1.047 -4.582,1.148 0.066,0.478 -0.094,0.338 -0.116,0.178 0,0 Z"
             style="fill:none;stroke:#000000;stroke-width:2;stroke-linecap:butt;stroke-linejoin:miter;stroke-miterlimit:10;stroke-dasharray:none;stroke-opacity:1"
             id="path186"
             inkscape:connector-curvature="0" /></g><g
           id="g188"
           transform="translate(390.3437,245.9137)"><path
             d="M 0,0 C -1.02,0.225 -2.795,-0.461 -2.517,0.649 -2.05,2.513 0.293,1.606 1.716,2.257 2.419,2.578 3.324,2.309 3.112,1.321 2.695,-0.624 0.918,0.504 0,0"
             style="fill:#ffffff;fill-opacity:1;fill-rule:nonzero;stroke:none"
             id="path190"
             inkscape:connector-curvature="0" /></g><g
           id="g192"
           transform="translate(390.3437,245.9137)"><path
             d="M 0,0 C -1.02,0.225 -2.795,-0.461 -2.517,0.649 -2.05,2.513 0.293,1.606 1.716,2.257 2.419,2.578 3.324,2.309 3.112,1.321 2.695,-0.624 0.918,0.504 0,0 Z"
             style="fill:none;stroke:#000000;stroke-width:2;stroke-linecap:butt;stroke-linejoin:miter;stroke-miterlimit:10;stroke-dasharray:none;stroke-opacity:1"
             id="path194"
             inkscape:connector-curvature="0" /></g><g
           id="g196"
           transform="translate(378.1154,243.3227)"><path
             d="M 0,0 C -0.116,0.178 -0.094,0.338 0.066,0.478 0.268,1.058 0.764,1.058 1.235,1.029 1.681,1.001 2.123,0.897 2.667,0.81 1.941,-0.473 0.841,0.251 0,0"
             style="fill:#c0c0c0;fill-opacity:1;fill-rule:nonzero;stroke:none"
             id="path198"
             inkscape:connector-curvature="0" /></g><g
           id="g200"
           transform="translate(378.1154,243.3227)"><path
             d="M 0,0 C -0.116,0.178 -0.094,0.338 0.066,0.478 0.268,1.058 0.764,1.058 1.235,1.029 1.681,1.001 2.123,0.897 2.667,0.81 1.941,-0.473 0.841,0.251 0,0 Z"
             style="fill:none;stroke:#000000;stroke-width:2;stroke-linecap:butt;stroke-linejoin:miter;stroke-miterlimit:10;stroke-dasharray:none;stroke-opacity:1"
             id="path202"
             inkscape:connector-curvature="0" /></g><g
           id="g204"
           transform="translate(533.8755,338.3555)"><path
             d="M 0,0 C 0.276,0.009 0.551,0.017 0.827,0.026 0.765,-0.224 0.704,-0.474 0.643,-0.725 0.429,-0.484 0.215,-0.242 0,0"
             style="fill:#ffffff;fill-opacity:1;fill-rule:nonzero;stroke:none"
             id="path206"
             inkscape:connector-curvature="0" /></g><g
           id="g208"
           transform="translate(533.8755,338.3555)"><path
             d="M 0,0 C 0.276,0.009 0.551,0.017 0.827,0.026 0.765,-0.224 0.704,-0.474 0.643,-0.725 0.429,-0.484 0.215,-0.242 0,0 Z"
             style="fill:none;stroke:#000000;stroke-width:2;stroke-linecap:butt;stroke-linejoin:miter;stroke-miterlimit:10;stroke-dasharray:none;stroke-opacity:1"
             id="path210"
             inkscape:connector-curvature="0" /></g><g
           id="g212"
           transform="translate(286.3525,206.6863)"><path
             d="m 0,0 c -9.163,4.153 -18.107,4.34 -26.702,-1.395 -1.828,-1.22 -3.249,-2.784 -3.698,-5.256 4.565,0.691 8.755,-0.277 12.921,-1.39 0.681,-0.182 1.176,-0.366 1.709,0.363 C -11.874,-2.355 -6.459,-0.164 0,0 m 7.061,-25.023 c -8.296,7.202 -16.504,13.356 -26.612,16.341 -3.058,0.903 -6.238,1.381 -9.524,0.744 -1.666,-0.323 -1.849,-0.908 -1.478,-2.362 0.578,-2.263 1.906,-3.967 3.684,-5.319 4.101,-3.118 8.758,-5.085 13.705,-6.441 6.388,-1.752 12.843,-2.997 20.225,-2.963 m -21.956,16.064 c 8.533,-3.77 15.79,-9.143 22.625,-15.142 0.44,-0.386 0.831,-0.885 1.498,-0.845 3.748,0.227 6.873,1.637 8.767,5.018 1.51,2.695 0.741,5.196 -0.972,7.565 -2.732,3.777 -6.431,6.409 -10.145,9.119 -4.576,3.34 -9.054,2.589 -14.408,0.358 4.796,-1.164 8.085,-4.136 12.35,-5.214 3.031,-0.766 5.64,-2.663 7.832,-4.992 1.101,-1.17 1.68,-2.42 0.776,-4.239 -4.171,3.179 -8.871,5.189 -12.38,9.284 -2.19,2.556 -5.995,4.27 -9.472,4.33 -2.424,0.041 -4.343,-2.66 -6.12,-4.602 -0.11,-0.121 -0.164,-0.294 -0.351,-0.64 M 6.401,-27.827 c -10.517,0.25 -20.65,2.313 -30.281,6.603 -1.766,0.786 -3.481,1.762 -5.062,2.875 -5.473,3.855 -6.526,10.255 -2.567,15.733 4.216,5.834 10.476,7.565 17.167,7.755 9.977,0.282 18.671,-3.393 26.347,-9.598 2.039,-1.649 4.055,-3.363 5.851,-5.265 2.898,-3.071 4.422,-6.837 3.009,-10.945 -1.378,-4.009 -4.91,-5.858 -8.892,-6.745 -1.824,-0.407 -3.695,-0.505 -5.572,-0.413"
             style="fill:#131313;fill-opacity:1;fill-rule:nonzero;stroke:none"
             id="path214"
             inkscape:connector-curvature="0" /></g><g
           id="g216"
           transform="translate(286.3525,206.6863)"><path
             d="m 0,0 c -9.163,4.153 -18.107,4.34 -26.702,-1.395 -1.828,-1.22 -3.249,-2.784 -3.698,-5.256 4.565,0.691 8.755,-0.277 12.921,-1.39 0.681,-0.182 1.176,-0.366 1.709,0.363 C -11.874,-2.355 -6.459,-0.164 0,0 Z m 7.061,-25.023 c -8.296,7.202 -16.504,13.356 -26.612,16.341 -3.058,0.903 -6.238,1.381 -9.524,0.744 -1.666,-0.323 -1.849,-0.908 -1.478,-2.362 0.578,-2.263 1.906,-3.967 3.684,-5.319 4.101,-3.118 8.758,-5.085 13.705,-6.441 6.388,-1.752 12.843,-2.997 20.225,-2.963 z m -21.956,16.064 c 8.533,-3.77 15.79,-9.143 22.625,-15.142 0.44,-0.386 0.831,-0.885 1.498,-0.845 3.748,0.227 6.873,1.637 8.767,5.018 1.51,2.695 0.741,5.196 -0.972,7.565 -2.732,3.777 -6.431,6.409 -10.145,9.119 -4.576,3.34 -9.054,2.589 -14.408,0.358 4.796,-1.164 8.085,-4.136 12.35,-5.214 3.031,-0.766 5.64,-2.663 7.832,-4.992 1.101,-1.17 1.68,-2.42 0.776,-4.239 -4.171,3.179 -8.871,5.189 -12.38,9.284 -2.19,2.556 -5.995,4.27 -9.472,4.33 -2.424,0.041 -4.343,-2.66 -6.12,-4.602 -0.11,-0.121 -0.164,-0.294 -0.351,-0.64 z M 6.401,-27.827 c -10.517,0.25 -20.65,2.313 -30.281,6.603 -1.766,0.786 -3.481,1.762 -5.062,2.875 -5.473,3.855 -6.526,10.255 -2.567,15.733 4.216,5.834 10.476,7.565 17.167,7.755 9.977,0.282 18.671,-3.393 26.347,-9.598 2.039,-1.649 4.055,-3.363 5.851,-5.265 2.898,-3.071 4.422,-6.837 3.009,-10.945 -1.378,-4.009 -4.91,-5.858 -8.892,-6.745 -1.824,-0.407 -3.695,-0.505 -5.572,-0.413 z"
             style="fill:none;stroke:#000000;stroke-width:2;stroke-linecap:butt;stroke-linejoin:miter;stroke-miterlimit:10;stroke-dasharray:none;stroke-opacity:1"
             id="path218"
             inkscape:connector-curvature="0" /></g><g
           id="g220"
           transform="translate(271.4578,197.7269)"><path
             d="m 0,0 c 0.186,0.346 0.24,0.519 0.351,0.64 1.777,1.942 3.696,4.644 6.12,4.602 3.476,-0.059 7.282,-1.773 9.472,-4.329 3.509,-4.096 8.209,-6.106 12.38,-9.284 0.904,1.818 0.325,3.068 -0.776,4.238 -2.193,2.33 -4.801,4.227 -7.832,4.993 -4.265,1.077 -7.555,4.049 -12.351,5.213 5.355,2.231 9.832,2.982 14.409,-0.357 3.713,-2.71 7.412,-5.342 10.144,-9.12 1.714,-2.369 2.482,-4.87 0.972,-7.565 -1.894,-3.38 -5.018,-4.791 -8.767,-5.017 -0.666,-0.04 -1.057,0.458 -1.497,0.845 C 15.79,-9.143 8.533,-3.77 0,0"
             style="fill:#ffffff;fill-opacity:1;fill-rule:nonzero;stroke:none"
             id="path222"
             inkscape:connector-curvature="0" /></g><g
           id="g224"
           transform="translate(271.4578,197.7269)"><path
             d="m 0,0 c 0.186,0.346 0.24,0.519 0.351,0.64 1.777,1.942 3.696,4.644 6.12,4.602 3.476,-0.059 7.282,-1.773 9.472,-4.329 3.509,-4.096 8.209,-6.106 12.38,-9.284 0.904,1.818 0.325,3.068 -0.776,4.238 -2.193,2.33 -4.801,4.227 -7.832,4.993 -4.265,1.077 -7.555,4.049 -12.351,5.213 5.355,2.231 9.832,2.982 14.409,-0.357 3.713,-2.71 7.412,-5.342 10.144,-9.12 1.714,-2.369 2.482,-4.87 0.972,-7.565 -1.894,-3.38 -5.018,-4.791 -8.767,-5.017 -0.666,-0.04 -1.057,0.458 -1.497,0.845 C 15.79,-9.143 8.533,-3.77 0,0 Z"
             style="fill:none;stroke:#000000;stroke-width:2;stroke-linecap:butt;stroke-linejoin:miter;stroke-miterlimit:10;stroke-dasharray:none;stroke-opacity:1"
             id="path226"
             inkscape:connector-curvature="0" /></g><g
           id="g228"
           transform="translate(293.4132,181.6631)"><path
             d="m 0,0 c -7.382,-0.034 -13.837,1.211 -20.224,2.963 -4.948,1.357 -9.604,3.324 -13.705,6.441 -1.779,1.352 -3.107,3.056 -3.685,5.32 -0.371,1.454 -0.188,2.038 1.478,2.361 3.287,0.638 6.466,0.159 9.524,-0.744 C -16.504,13.356 -8.296,7.203 0,0"
             style="fill:#ffffff;fill-opacity:1;fill-rule:nonzero;stroke:none"
             id="path230"
             inkscape:connector-curvature="0" /></g><g
           id="g232"
           transform="translate(293.4132,181.6631)"><path
             d="m 0,0 c -7.382,-0.034 -13.837,1.211 -20.224,2.963 -4.948,1.357 -9.604,3.324 -13.705,6.441 -1.779,1.352 -3.107,3.056 -3.685,5.32 -0.371,1.454 -0.188,2.038 1.478,2.361 3.287,0.638 6.466,0.159 9.524,-0.744 C -16.504,13.356 -8.296,7.203 0,0 Z"
             style="fill:none;stroke:#000000;stroke-width:2;stroke-linecap:butt;stroke-linejoin:miter;stroke-miterlimit:10;stroke-dasharray:none;stroke-opacity:1"
             id="path234"
             inkscape:connector-curvature="0" /></g><g
           id="g236"
           transform="translate(286.3525,206.6863)"><path
             d="m 0,0 c -6.459,-0.164 -11.874,-2.355 -15.77,-7.678 -0.533,-0.729 -1.028,-0.545 -1.709,-0.363 -4.166,1.113 -8.356,2.081 -12.921,1.39 0.449,2.472 1.87,4.036 3.698,5.256 C -18.107,4.34 -9.163,4.153 0,0"
             style="fill:#ffffff;fill-opacity:1;fill-rule:nonzero;stroke:none"
             id="path238"
             inkscape:connector-curvature="0" /></g><g
           id="g240"
           transform="translate(286.3525,206.6863)"><path
             d="m 0,0 c -6.459,-0.164 -11.874,-2.355 -15.77,-7.678 -0.533,-0.729 -1.028,-0.545 -1.709,-0.363 -4.166,1.113 -8.356,2.081 -12.921,1.39 0.449,2.472 1.87,4.036 3.698,5.256 C -18.107,4.34 -9.163,4.153 0,0 Z"
             style="fill:none;stroke:#000000;stroke-width:2;stroke-linecap:butt;stroke-linejoin:miter;stroke-miterlimit:10;stroke-dasharray:none;stroke-opacity:1"
             id="path242"
             inkscape:connector-curvature="0" /></g></g></g></g></svg>